<svg xmlns="http://www.w3.org/2000/svg" xmlns:xlink="http://www.w3.org/1999/xlink" width="106" zoomAndPan="magnify" viewBox="0 0 79.5 79.499996" height="106" preserveAspectRatio="xMidYMid meet" version="1.0"><defs><clipPath id="9b88ee5da2"><path d="M 7 7.898438 L 72 7.898438 L 72 63 L 7 63 Z M 7 7.898438 " clip-rule="nonzero"/></clipPath><clipPath id="2377d9e720"><path d="M 7 7.898438 L 72 7.898438 L 72 59 L 7 59 Z M 7 7.898438 " clip-rule="nonzero"/></clipPath><clipPath id="f210470dc9"><path d="M 3 18 L 37 18 L 37 77.214844 L 3 77.214844 Z M 3 18 " clip-rule="nonzero"/></clipPath><clipPath id="72864aa607"><path d="M 42 18 L 75.945312 18 L 75.945312 77.214844 L 42 77.214844 Z M 42 18 " clip-rule="nonzero"/></clipPath></defs><path fill="#f5bfa9" d="M 6.453125 20.929688 C 7.054688 21.132812 7.761719 21.671875 8.210938 22.636719 C 8.660156 23.601562 8.851562 24.988281 9.003906 26.488281 C 9.148438 27.988281 9.261719 29.597656 9.519531 31.125 C 9.773438 32.652344 10.175781 34.105469 11.214844 36.015625 C 12.257812 37.921875 13.9375 40.289062 14.433594 41.78125 C 14.933594 43.269531 14.238281 43.875 13.414062 43.921875 C 12.589844 43.96875 11.636719 43.449219 10.449219 41.257812 C 9.265625 39.0625 7.851562 35.195312 6.800781 31.621094 C 5.753906 28.054688 5.074219 24.789062 4.808594 23.066406 C 4.542969 21.34375 4.699219 21.160156 5.023438 21.007812 C 5.347656 20.851562 5.847656 20.71875 6.453125 20.929688 Z M 6.453125 20.929688 " fill-opacity="1" fill-rule="evenodd"/><path fill="#f5bfa9" d="M 72.402344 20.929688 C 71.800781 21.132812 71.09375 21.671875 70.640625 22.636719 C 70.191406 23.601562 70.003906 24.988281 69.851562 26.488281 C 69.703125 27.988281 69.589844 29.597656 69.335938 31.125 C 69.078125 32.652344 68.679688 34.105469 67.636719 36.015625 C 66.597656 37.921875 64.914062 40.289062 64.417969 41.78125 C 63.921875 43.269531 64.613281 43.875 65.4375 43.921875 C 66.261719 43.96875 67.21875 43.449219 68.40625 41.257812 C 69.589844 39.0625 71.003906 35.195312 72.050781 31.621094 C 73.101562 28.054688 73.78125 24.789062 74.046875 23.066406 C 74.308594 21.34375 74.15625 21.160156 73.832031 21.007812 C 73.503906 20.851562 73.007812 20.71875 72.402344 20.929688 Z M 72.402344 20.929688 " fill-opacity="1" fill-rule="evenodd"/><g clip-path="url(#9b88ee5da2)"><path fill="#eb4452" d="M 39.425781 19.929688 C 43.441406 11.910156 47.453125 7.902344 55.484375 7.902344 C 64.347656 7.902344 71.539062 15.085938 71.539062 23.941406 C 71.539062 39.976562 55.484375 46.46875 39.425781 62.511719 C 23.371094 46.46875 7.3125 39.976562 7.3125 23.941406 C 7.3125 15.085938 14.507812 7.902344 23.371094 7.902344 C 31.398438 7.898438 35.414062 11.910156 39.425781 19.929688 Z M 39.425781 19.929688 " fill-opacity="1" fill-rule="nonzero"/></g><path fill="#d24656" d="M 70.386719 21.738281 C 70.386719 38.078125 54.179688 44.78125 37.828125 60.941406 C 38.359375 61.453125 38.894531 61.976562 39.425781 62.511719 C 55.484375 46.46875 71.539062 39.976562 71.539062 23.941406 C 71.539062 20.890625 70.683594 18.039062 69.207031 15.613281 C 69.964844 17.507812 70.386719 19.574219 70.386719 21.738281 Z M 70.386719 21.738281 " fill-opacity="1" fill-rule="evenodd"/><path fill="#d24656" d="M 37.796875 21.925781 C 37.804688 22.597656 37.972656 22.613281 38.207031 22.179688 C 38.398438 21.828125 38.769531 21.144531 39.390625 19.859375 C 35.871094 12.84375 32.335938 8.910156 26.078125 8.070312 C 32.625 9.941406 37.738281 17.617188 37.796875 21.925781 Z M 37.796875 21.925781 " fill-opacity="1" fill-rule="evenodd"/><path fill="#ef707e" d="M 25.773438 9.394531 C 19.824219 10.089844 14.761719 13.011719 10.59375 18.160156 C 13.457031 12.289062 18.519531 9.367188 25.773438 9.394531 Z M 25.773438 9.394531 " fill-opacity="1" fill-rule="evenodd"/><path fill="#ef707e" d="M 60.347656 10.617188 C 54.382812 10.027344 48.8125 11.796875 43.636719 15.9375 C 47.691406 10.816406 53.261719 9.039062 60.347656 10.617188 Z M 60.347656 10.617188 " fill-opacity="1" fill-rule="evenodd"/><g clip-path="url(#2377d9e720)"><path fill="#ef707e" d="M 42.832031 24.171875 C 43.417969 25.617188 47.558594 26.300781 48.84375 25.832031 C 48.882812 25.816406 48.925781 25.789062 48.964844 25.773438 L 49.582031 25.539062 C 49.542969 26.835938 49.613281 27.171875 49.285156 28.402344 C 48.496094 28.464844 48.183594 28.28125 47.730469 28.378906 C 46.902344 28.558594 47.457031 28.742188 46.242188 28.519531 C 45.09375 28.308594 44.398438 27.644531 43.433594 28.046875 L 43.371094 29.121094 C 41.601562 29.007812 41.835938 28.238281 39.332031 27.699219 C 39.765625 25.429688 39.832031 25.820312 36.507812 26.300781 C 35.492188 26.445312 35.347656 26.726562 34.59375 27.078125 C 33.851562 27.425781 33.203125 27.5 33.027344 26.757812 C 33.667969 26.496094 34.566406 26.589844 34.996094 25.691406 L 35.109375 25.128906 C 35.25 24.441406 35.472656 24.414062 35.921875 24.082031 C 36.785156 23.4375 36.136719 23.867188 36.472656 23.023438 C 39.34375 22.921875 41.804688 21.640625 42.832031 24.171875 Z M 39.425781 19.929688 C 39.871094 19.035156 40.320312 18.195312 40.773438 17.398438 C 40.882812 17.351562 40.988281 17.300781 41.136719 17.257812 C 46.960938 15.621094 44.785156 15.527344 41.847656 15.628906 C 43.207031 13.53125 44.652344 11.863281 46.324219 10.621094 C 49.550781 10.875 53.667969 10.863281 58.382812 8.164062 C 65.863281 9.527344 71.539062 16.078125 71.539062 23.941406 C 71.539062 28.9375 69.976562 33.011719 67.34375 36.734375 C 66.859375 35.730469 66.402344 34.6875 66.203125 33.949219 C 65.636719 32.140625 64.8125 32.28125 62.761719 30.625 C 61.921875 30.496094 55.210938 28.640625 55.09375 28.664062 C 54.683594 31.738281 58.484375 30.121094 60.410156 32.351562 L 59.398438 34.226562 C 58.878906 34.925781 58.253906 34.949219 57.738281 35.4375 C 57.203125 35.9375 58.027344 35.609375 57.015625 36.164062 C 56.234375 36.589844 54.9375 37.363281 54.066406 37.542969 C 53.492188 36.355469 53.480469 35.011719 52.339844 33.929688 C 51.777344 33.394531 52.007812 33.742188 51.730469 32.90625 C 51.492188 32.1875 51.480469 32.3125 51.054688 31.804688 C 50.769531 31.460938 50.636719 31.171875 50.320312 30.726562 C 49.503906 29.574219 49.269531 30.382812 48.632812 29.226562 L 50.667969 32.898438 C 51.113281 33.492188 50.882812 33.722656 51.195312 34.347656 C 51.5 34.964844 51.589844 34.65625 51.972656 35.546875 C 52.46875 36.695312 53.480469 36.511719 53.863281 37.597656 C 54.132812 38.371094 53.507812 37.558594 54.464844 38.628906 C 55.417969 38.273438 56.460938 37.976562 57.359375 37.652344 C 57.308594 39.140625 56.492188 41.5 55.65625 42.363281 L 53.535156 44.917969 C 52.632812 46.015625 52.5 47.480469 53.089844 48.824219 L 53.386719 50.179688 C 50.199219 52.804688 46.789062 55.613281 43.3125 58.800781 C 43.234375 58.679688 43.164062 58.5625 43.101562 58.453125 C 42.894531 58.0625 42.875 57.683594 42.761719 57.179688 C 42.203125 54.640625 40.996094 54.15625 41.464844 51.933594 C 41.851562 50.054688 42.140625 51.597656 41.773438 49.386719 C 41.648438 48.636719 41.9375 49.085938 41.511719 48.167969 C 41.03125 47.136719 39.734375 45.445312 39.761719 45.011719 C 39.902344 42.566406 40.457031 43.925781 39.503906 42.429688 L 38.210938 42.621094 L 37.773438 41.699219 C 35.90625 41.515625 35.972656 42.347656 34.957031 42.519531 C 31.457031 43.113281 27.683594 39.921875 28.46875 37.167969 C 29.039062 35.175781 27.738281 35.296875 28.691406 33.421875 C 30.230469 30.386719 29.667969 31.949219 30.851562 30.53125 C 31.5625 29.6875 30.933594 29.503906 31.496094 28.667969 C 31.59375 28.527344 34.023438 26.589844 32.136719 26.394531 C 32.046875 26.382812 31.65625 26.445312 31.554688 26.457031 L 31.699219 23.578125 C 31.785156 22.859375 32.359375 23.082031 33.03125 23.113281 C 33.238281 23.121094 33.710938 23.132812 33.910156 23.097656 C 34.667969 22.96875 34.917969 22.125 34.417969 21.433594 C 33.769531 20.535156 33.773438 21.46875 33.375 20.652344 L 34.753906 20.066406 C 35.457031 19.789062 35.890625 19.402344 36.460938 18.863281 C 37.5625 17.820312 37.816406 17.511719 38.105469 17.449219 C 38.554688 18.230469 38.988281 19.054688 39.425781 19.929688 Z M 7.375 25.589844 C 7.335938 25.050781 7.3125 24.5 7.3125 23.941406 C 7.3125 22.46875 7.515625 21.046875 7.886719 19.691406 C 8.773438 18.171875 9.765625 16.71875 10.855469 15.347656 L 11.570312 15.976562 C 11.164062 16.527344 11.136719 17.230469 12.035156 16.988281 C 12.515625 16.859375 12.824219 16.316406 13.1875 16.011719 L 13.566406 18.101562 C 15.644531 22.265625 6.109375 23.953125 7.792969 25.457031 C 7.644531 25.5 7.507812 25.546875 7.375 25.589844 Z M 17.230469 9.121094 C 19.121094 8.335938 21.195312 7.902344 23.371094 7.902344 C 26.054688 7.902344 28.292969 8.351562 30.230469 9.25 C 29.25 10.308594 27.527344 11.238281 26.292969 11.59375 L 22.652344 13.191406 C 22.136719 13.417969 20.105469 15.351562 19.925781 15.664062 L 18.792969 15.613281 C 17.03125 11.121094 19.882812 13.535156 18.558594 9.207031 C 17.992188 9.074219 17.574219 9.054688 17.230469 9.121094 Z M 11.390625 14.691406 C 12.40625 13.472656 13.503906 12.320312 14.667969 11.242188 C 15.007812 12.019531 15.367188 15.511719 11.390625 14.691406 Z M 11.390625 14.691406 " fill-opacity="1" fill-rule="evenodd"/></g><path fill="#e86374" d="M 70.386719 21.738281 C 70.386719 26.6875 68.894531 30.753906 66.363281 34.464844 C 66.601562 35.136719 66.960938 35.949219 67.34375 36.734375 C 67.460938 36.566406 67.578125 36.398438 67.691406 36.230469 L 67.734375 36.160156 C 67.847656 35.992188 67.960938 35.828125 68.066406 35.660156 L 68.109375 35.589844 C 68.214844 35.421875 68.316406 35.257812 68.421875 35.089844 L 68.460938 35.019531 C 68.5625 34.851562 68.664062 34.683594 68.757812 34.511719 L 68.792969 34.445312 C 68.894531 34.273438 68.988281 34.09375 69.082031 33.921875 L 69.109375 33.867188 C 69.207031 33.683594 69.300781 33.5 69.390625 33.308594 L 69.414062 33.265625 C 69.503906 33.082031 69.59375 32.898438 69.675781 32.714844 L 69.699219 32.660156 C 69.78125 32.476562 69.859375 32.292969 69.9375 32.109375 L 69.960938 32.050781 C 70.039062 31.863281 70.113281 31.675781 70.183594 31.484375 L 70.203125 31.441406 C 70.28125 31.246094 70.347656 31.042969 70.414062 30.847656 L 70.425781 30.816406 C 70.496094 30.613281 70.5625 30.410156 70.628906 30.203125 L 70.632812 30.171875 C 70.699219 29.96875 70.753906 29.765625 70.8125 29.5625 L 70.824219 29.523438 C 70.875 29.316406 70.929688 29.113281 70.976562 28.898438 L 70.984375 28.867188 C 71.035156 28.65625 71.082031 28.445312 71.125 28.226562 L 71.128906 28.203125 C 71.175781 27.984375 71.210938 27.761719 71.25 27.535156 L 71.25 27.53125 C 71.289062 27.304688 71.324219 27.074219 71.351562 26.84375 L 71.355469 26.828125 C 71.382812 26.601562 71.410156 26.375 71.433594 26.144531 L 71.433594 26.117188 C 71.457031 25.890625 71.472656 25.660156 71.488281 25.429688 L 71.492188 25.402344 C 71.507812 25.167969 71.519531 24.929688 71.527344 24.691406 L 71.527344 24.675781 C 71.535156 24.433594 71.539062 24.1875 71.539062 23.941406 L 71.539062 23.929688 C 71.539062 23.816406 71.539062 23.703125 71.535156 23.59375 L 71.535156 23.550781 C 71.53125 23.4375 71.527344 23.328125 71.523438 23.214844 L 71.519531 23.1875 C 71.515625 23.078125 71.511719 22.96875 71.503906 22.859375 L 71.5 22.828125 C 71.492188 22.71875 71.484375 22.605469 71.472656 22.496094 L 71.46875 22.460938 C 71.460938 22.355469 71.449219 22.246094 71.4375 22.136719 L 71.433594 22.113281 C 71.425781 22.003906 71.410156 21.894531 71.394531 21.78125 L 71.390625 21.746094 C 71.375 21.632812 71.355469 21.523438 71.339844 21.414062 L 71.335938 21.398438 C 71.320312 21.292969 71.304688 21.183594 71.28125 21.074219 L 71.277344 21.042969 C 71.257812 20.933594 71.234375 20.824219 71.210938 20.71875 L 71.207031 20.695312 C 71.1875 20.585938 71.164062 20.480469 71.140625 20.375 L 71.136719 20.359375 C 71.109375 20.25 71.085938 20.136719 71.058594 20.03125 L 71.050781 20.007812 C 71.023438 19.898438 70.992188 19.789062 70.96875 19.679688 L 70.964844 19.675781 C 70.933594 19.566406 70.902344 19.460938 70.871094 19.351562 L 70.867188 19.332031 C 70.832031 19.226562 70.800781 19.113281 70.765625 19.007812 L 70.761719 19.003906 C 70.730469 18.894531 70.691406 18.789062 70.65625 18.683594 L 70.648438 18.671875 C 70.613281 18.5625 70.574219 18.457031 70.535156 18.351562 L 70.53125 18.335938 C 70.492188 18.234375 70.453125 18.128906 70.414062 18.023438 L 70.410156 18.019531 C 70.367188 17.914062 70.324219 17.8125 70.28125 17.707031 L 70.277344 17.695312 C 70.183594 17.484375 70.09375 17.277344 69.996094 17.074219 L 69.992188 17.070312 C 69.894531 16.863281 69.792969 16.65625 69.683594 16.453125 C 69.628906 16.351562 69.578125 16.25 69.519531 16.152344 L 69.519531 16.148438 C 69.417969 15.972656 69.316406 15.789062 69.207031 15.617188 C 69.964844 17.507812 70.386719 19.578125 70.386719 21.738281 Z M 52.792969 47.839844 C 49.582031 50.492188 46.121094 53.304688 42.578125 56.476562 C 42.644531 56.695312 42.707031 56.925781 42.761719 57.179688 C 42.875 57.683594 42.894531 58.0625 43.101562 58.453125 C 43.164062 58.5625 43.234375 58.679688 43.3125 58.800781 L 43.316406 58.796875 C 43.476562 58.648438 43.640625 58.5 43.796875 58.355469 C 43.894531 58.265625 43.988281 58.183594 44.078125 58.101562 C 43.988281 58.183594 43.894531 58.265625 43.796875 58.355469 Z M 44.515625 57.707031 C 44.621094 57.609375 44.730469 57.511719 44.839844 57.417969 C 44.984375 57.289062 45.125 57.160156 45.269531 57.035156 C 45.371094 56.949219 45.46875 56.859375 45.566406 56.773438 C 45.707031 56.648438 45.851562 56.527344 45.992188 56.402344 C 46.101562 56.304688 46.214844 56.210938 46.324219 56.113281 C 46.464844 55.992188 46.601562 55.867188 46.742188 55.746094 C 46.839844 55.664062 46.9375 55.578125 47.035156 55.496094 C 47.183594 55.367188 47.332031 55.238281 47.480469 55.113281 C 47.578125 55.027344 47.675781 54.945312 47.773438 54.859375 C 47.921875 54.734375 48.070312 54.609375 48.214844 54.488281 C 48.308594 54.410156 48.402344 54.332031 48.496094 54.25 C 48.648438 54.121094 48.800781 53.992188 48.953125 53.863281 L 49.222656 53.636719 C 49.375 53.507812 49.527344 53.378906 49.679688 53.253906 L 49.914062 53.058594 C 50.085938 52.914062 50.25 52.773438 50.421875 52.636719 L 50.597656 52.488281 C 50.777344 52.335938 50.960938 52.1875 51.136719 52.039062 L 51.296875 51.90625 C 51.484375 51.753906 51.679688 51.59375 51.867188 51.4375 L 51.992188 51.332031 C 52.203125 51.160156 52.410156 50.988281 52.617188 50.820312 L 52.636719 50.800781 L 53.089844 50.429688 L 53.238281 50.308594 L 53.308594 50.25 L 53.386719 50.183594 L 53.089844 48.828125 C 52.953125 48.503906 52.851562 48.175781 52.792969 47.839844 Z M 44.515625 57.707031 C 44.371094 57.835938 44.226562 57.96875 44.078125 58.101562 Z M 44.515625 57.707031 " fill-opacity="1" fill-rule="evenodd"/><g clip-path="url(#f210470dc9)"><path fill="#fddbca" d="M 34.824219 68.945312 C 33.890625 62.21875 34.039062 58.289062 32.460938 54.941406 C 30.882812 51.59375 27.570312 48.824219 25.125 46.84375 C 22.675781 44.859375 21.097656 43.652344 19.835938 41.554688 C 18.570312 39.453125 17.632812 36.449219 16.65625 34.355469 C 15.679688 32.257812 14.671875 31.058594 13.65625 30.71875 C 12.636719 30.382812 11.613281 30.90625 11.335938 32.289062 C 11.050781 33.679688 11.515625 35.933594 12.109375 37.707031 C 12.699219 39.484375 13.417969 40.785156 13.503906 41.085938 C 13.585938 41.386719 13.039062 40.691406 12.128906 39.304688 C 11.214844 37.914062 9.9375 35.835938 9.070312 33.667969 C 8.210938 31.503906 7.761719 29.253906 7.476562 26.847656 C 7.1875 24.433594 7.054688 21.867188 6.207031 20.3125 C 5.351562 18.761719 3.78125 18.222656 3.34375 20.699219 C 2.910156 23.179688 3.613281 28.679688 4.414062 33.402344 C 5.214844 38.128906 6.121094 42.089844 7.019531 44.808594 C 7.921875 47.53125 8.816406 49.011719 10.410156 50.699219 C 11.996094 52.386719 14.273438 54.285156 16.226562 55.714844 C 18.175781 57.144531 19.796875 58.117188 21.140625 60.003906 C 22.484375 61.894531 23.550781 64.699219 24.367188 68.902344 C 24.792969 71.109375 25.15625 73.703125 25.398438 76.148438 L 36.230469 77.214844 C 35.851562 75.097656 35.078125 70.800781 34.824219 68.945312 Z M 34.824219 68.945312 " fill-opacity="1" fill-rule="evenodd"/></g><path fill="#fff4e9" d="M 11.773438 32.605469 C 11.832031 31.796875 12.335938 31.304688 12.714844 31.066406 C 13.09375 30.832031 13.34375 30.859375 13.6875 31.015625 C 14.03125 31.171875 14.460938 31.460938 14.867188 32.035156 C 15.277344 32.613281 15.660156 33.476562 15.816406 33.972656 C 15.972656 34.460938 15.898438 34.582031 15.371094 34.855469 C 14.847656 35.125 13.867188 35.550781 13.3125 35.703125 C 12.753906 35.859375 12.617188 35.75 12.355469 35.136719 C 12.097656 34.527344 11.714844 33.410156 11.773438 32.605469 Z M 11.773438 32.605469 " fill-opacity="1" fill-rule="evenodd"/><path fill="#f5bfa9" d="M 14.5 38.367188 C 15.015625 38.15625 15.992188 37.746094 16.488281 37.558594 C 16.988281 37.367188 17.019531 37.394531 16.691406 37.574219 C 16.359375 37.75 15.667969 38.078125 15.140625 38.277344 C 14.617188 38.476562 14.25 38.550781 14.089844 38.578125 C 13.933594 38.601562 13.988281 38.585938 14.5 38.367188 Z M 14.5 38.367188 " fill-opacity="1" fill-rule="evenodd"/><path fill="#f5bfa9" d="M 10.933594 37.394531 C 11.679688 38.957031 12.753906 41.011719 13.523438 42.277344 C 14.433594 43.773438 14.921875 44.167969 15.140625 44.269531 C 15.359375 44.371094 15.3125 44.179688 15.003906 43.640625 C 14.695312 43.105469 14.125 42.222656 13.347656 40.714844 L 13.335938 40.695312 C 13.425781 40.878906 13.480469 41.015625 13.503906 41.085938 C 13.585938 41.390625 13.039062 40.691406 12.128906 39.304688 C 11.769531 38.761719 11.355469 38.113281 10.933594 37.394531 Z M 10.933594 37.394531 " fill-opacity="1" fill-rule="evenodd"/><path fill="#f5bfa9" d="M 15.085938 39.597656 C 15.601562 39.382812 16.574219 38.976562 17.070312 38.785156 C 17.574219 38.59375 17.601562 38.621094 17.273438 38.800781 C 16.941406 38.976562 16.253906 39.304688 15.726562 39.503906 C 15.195312 39.707031 14.832031 39.777344 14.675781 39.804688 C 14.515625 39.828125 14.574219 39.8125 15.085938 39.597656 Z M 15.085938 39.597656 " fill-opacity="1" fill-rule="evenodd"/><g clip-path="url(#72864aa607)"><path fill="#fddbca" d="M 44.03125 68.945312 C 44.960938 62.21875 44.8125 58.289062 46.390625 54.941406 C 47.96875 51.59375 51.285156 48.824219 53.730469 46.84375 C 56.175781 44.859375 57.753906 43.652344 59.015625 41.554688 C 60.28125 39.453125 61.222656 36.449219 62.199219 34.355469 C 63.175781 32.257812 64.179688 31.058594 65.195312 30.71875 C 66.210938 30.382812 67.242188 30.90625 67.519531 32.289062 C 67.800781 33.679688 67.335938 35.933594 66.746094 37.707031 C 66.152344 39.484375 65.433594 40.785156 65.351562 41.085938 C 65.265625 41.386719 65.8125 40.691406 66.726562 39.304688 C 67.636719 37.914062 68.917969 35.835938 69.78125 33.667969 C 70.640625 31.503906 71.089844 29.253906 71.378906 26.847656 C 71.667969 24.433594 71.792969 21.867188 72.648438 20.3125 C 73.5 18.761719 75.070312 18.222656 75.507812 20.699219 C 75.941406 23.179688 75.238281 28.679688 74.4375 33.402344 C 73.636719 38.128906 72.730469 42.089844 71.832031 44.808594 C 70.933594 47.53125 70.035156 49.011719 68.445312 50.699219 C 66.855469 52.386719 64.574219 54.285156 62.625 55.714844 C 60.675781 57.144531 59.054688 58.117188 57.714844 60.003906 C 56.367188 61.894531 55.300781 64.699219 54.484375 68.902344 C 54.058594 71.109375 53.699219 73.703125 53.457031 76.148438 L 42.625 77.214844 C 43 75.097656 43.777344 70.800781 44.03125 68.945312 Z M 44.03125 68.945312 " fill-opacity="1" fill-rule="evenodd"/></g><path fill="#fff4e9" d="M 67.078125 32.605469 C 67.019531 31.796875 66.515625 31.304688 66.136719 31.066406 C 65.757812 30.832031 65.507812 30.859375 65.167969 31.015625 C 64.824219 31.171875 64.390625 31.460938 63.988281 32.035156 C 63.578125 32.613281 63.195312 33.476562 63.039062 33.972656 C 62.882812 34.460938 62.957031 34.582031 63.480469 34.855469 C 64.007812 35.125 64.984375 35.550781 65.542969 35.703125 C 66.101562 35.859375 66.238281 35.75 66.496094 35.136719 C 66.757812 34.527344 67.140625 33.410156 67.078125 32.605469 Z M 67.078125 32.605469 " fill-opacity="1" fill-rule="evenodd"/><path fill="#f5bfa9" d="M 64.351562 38.367188 C 63.835938 38.15625 62.863281 37.746094 62.367188 37.558594 C 61.863281 37.367188 61.835938 37.394531 62.164062 37.574219 C 62.496094 37.75 63.183594 38.078125 63.710938 38.277344 C 64.242188 38.476562 64.605469 38.550781 64.761719 38.578125 C 64.921875 38.601562 64.863281 38.585938 64.351562 38.367188 Z M 64.351562 38.367188 " fill-opacity="1" fill-rule="evenodd"/><path fill="#f5bfa9" d="M 67.917969 37.394531 C 67.171875 38.957031 66.101562 41.011719 65.328125 42.277344 C 64.417969 43.773438 63.933594 44.167969 63.714844 44.269531 C 63.492188 44.371094 63.539062 44.179688 63.847656 43.640625 C 64.15625 43.105469 64.730469 42.222656 65.507812 40.714844 L 65.511719 40.695312 C 65.429688 40.878906 65.371094 41.015625 65.351562 41.085938 C 65.265625 41.390625 65.8125 40.691406 66.726562 39.304688 C 67.082031 38.761719 67.496094 38.113281 67.917969 37.394531 Z M 67.917969 37.394531 " fill-opacity="1" fill-rule="evenodd"/><path fill="#f5bfa9" d="M 63.769531 39.597656 C 63.253906 39.382812 62.277344 38.976562 61.78125 38.785156 C 61.28125 38.59375 61.25 38.621094 61.578125 38.800781 C 61.914062 38.976562 62.601562 39.304688 63.128906 39.503906 C 63.65625 39.707031 64.019531 39.777344 64.179688 39.804688 C 64.335938 39.828125 64.28125 39.8125 63.769531 39.597656 Z M 63.769531 39.597656 " fill-opacity="1" fill-rule="evenodd"/><path fill="#ffffff" d="M 36.195312 24.054688 L 42.65625 24.054688 L 42.65625 46.355469 L 36.195312 46.355469 Z M 36.195312 24.054688 " fill-opacity="1" fill-rule="evenodd"/><path fill="#ffffff" d="M 28.261719 31.976562 L 50.589844 31.976562 L 50.589844 38.433594 L 28.261719 38.433594 Z M 28.261719 31.976562 " fill-opacity="1" fill-rule="evenodd"/></svg>