<svg xmlns="http://www.w3.org/2000/svg" xmlns:xlink="http://www.w3.org/1999/xlink" width="62" zoomAndPan="magnify" viewBox="0 0 46.5 45.749999" height="61" preserveAspectRatio="xMidYMid meet" version="1.0"><defs><clipPath id="998251246c"><path d="M 2.28125 2.027344 L 43.832031 2.027344 L 43.832031 43.582031 L 2.28125 43.582031 Z M 2.28125 2.027344 " clip-rule="nonzero"/></clipPath><clipPath id="50058f8df9"><path d="M 8 31 L 21 31 L 21 43.582031 L 8 43.582031 Z M 8 31 " clip-rule="nonzero"/></clipPath><clipPath id="d1fa08326f"><path d="M 15 31 L 26 31 L 26 43.582031 L 15 43.582031 Z M 15 31 " clip-rule="nonzero"/></clipPath><clipPath id="9a37aa3dc9"><path d="M 24 32 L 33 32 L 33 43.582031 L 24 43.582031 Z M 24 32 " clip-rule="nonzero"/></clipPath></defs><g clip-path="url(#998251246c)"><path fill="#f7d132" d="M 23.058594 2.027344 C 34.53125 2.027344 43.832031 11.332031 43.832031 22.804688 C 43.832031 34.28125 34.53125 43.582031 23.058594 43.582031 C 11.582031 43.582031 2.28125 34.28125 2.28125 22.804688 C 2.28125 11.332031 11.582031 2.027344 23.058594 2.027344 " fill-opacity="1" fill-rule="nonzero"/></g><path fill="#b1b1b0" d="M 12.667969 30.699219 C 14.085938 30.699219 15.507812 30.699219 16.929688 30.699219 L 16.953125 30.988281 L 14.867188 34.144531 L 12.632812 30.957031 L 12.667969 30.699219 " fill-opacity="1" fill-rule="nonzero"/><path fill="#eeb367" d="M 12.695312 29.90625 L 12.65625 31.6875 L 9.636719 33.339844 L 9.636719 38.664062 C 9.933594 38.917969 10.238281 39.160156 10.550781 39.394531 L 19.808594 39.394531 L 19.808594 33.339844 L 17 31.59375 L 16.84375 29.8125 L 12.695312 29.90625 " fill-opacity="1" fill-rule="nonzero"/><path fill="#fccd86" d="M 11.296875 24.710938 C 11.296875 24.710938 11.125 24.332031 10.660156 24.519531 C 10.195312 24.707031 10.679688 26.589844 10.859375 26.851562 C 11.035156 27.113281 11.320312 26.949219 11.425781 26.9375 C 11.574219 28.058594 11.585938 28.832031 12.035156 29.304688 C 12.460938 29.753906 13.433594 30.664062 13.949219 30.984375 C 14.292969 31.054688 14.554688 31.097656 14.796875 31.113281 C 15.042969 31.097656 15.300781 31.054688 15.648438 30.984375 C 16.160156 30.664062 17.132812 29.753906 17.558594 29.304688 C 18.007812 28.832031 18.023438 28.058594 18.167969 26.9375 C 18.273438 26.949219 18.558594 27.113281 18.738281 26.851562 C 18.914062 26.589844 19.402344 24.707031 18.9375 24.519531 C 18.472656 24.332031 18.296875 24.710938 18.296875 24.710938 C 18.296875 24.710938 18.757812 23.234375 17.941406 21.78125 C 17.378906 20.785156 16.101562 20.265625 14.796875 20.230469 C 13.492188 20.265625 12.214844 20.785156 11.65625 21.78125 C 10.835938 23.234375 11.296875 24.710938 11.296875 24.710938 " fill-opacity="1" fill-rule="nonzero"/><g clip-path="url(#50058f8df9)"><path fill="#48c1ad" d="M 11.175781 32.210938 L 11.898438 31.925781 L 12.480469 31.402344 L 14.539062 32.964844 L 15.054688 32.964844 L 17.113281 31.398438 L 18.417969 32.210938 L 20.691406 36.070312 L 19.367188 43.253906 C 15.261719 42.519531 11.574219 40.578125 8.6875 37.8125 L 8.207031 36.378906 L 11.175781 32.210938 " fill-opacity="1" fill-rule="nonzero"/></g><path fill="#59c7b6" d="M 17.757812 31.722656 L 16.929688 30.699219 L 15.054688 32.964844 L 16.664062 34.75 L 17.757812 31.722656 " fill-opacity="1" fill-rule="nonzero"/><path fill="#59c7b6" d="M 11.835938 31.703125 L 12.667969 30.699219 L 14.539062 32.964844 L 12.867188 34.734375 L 11.835938 31.703125 " fill-opacity="1" fill-rule="nonzero"/><path fill="#ffffff" d="M 11.835938 31.703125 L 6.324219 33.496094 C 6.101562 33.570312 5.960938 33.761719 5.914062 33.992188 L 5.828125 34.421875 C 7.863281 37.433594 10.667969 39.882812 13.957031 41.488281 L 11.835938 31.703125 " fill-opacity="1" fill-rule="nonzero"/><path fill="#f2f6f9" d="M 11.835938 31.703125 L 11.203125 31.898438 L 9.53125 34.75 L 11.640625 34.816406 L 10.34375 35.554688 L 12.75 40.847656 C 13.144531 41.074219 13.546875 41.289062 13.957031 41.488281 L 11.832031 31.703125 L 11.835938 31.703125 " fill-opacity="1" fill-rule="nonzero"/><g clip-path="url(#d1fa08326f)"><path fill="#f2f6f9" d="M 17.757812 31.722656 L 23.269531 33.496094 C 23.496094 33.570312 23.636719 33.761719 23.679688 33.992188 L 25.527344 43.433594 C 24.71875 43.53125 23.894531 43.582031 23.058594 43.582031 C 22.429688 43.582031 21.8125 43.550781 21.199219 43.5 L 20.804688 42.152344 C 20.792969 42.125 20.765625 42.105469 20.734375 42.109375 C 20.703125 42.113281 20.679688 42.136719 20.675781 42.167969 L 20.628906 43.441406 C 18.835938 43.230469 17.113281 42.796875 15.492188 42.160156 L 17.757812 31.722656 " fill-opacity="1" fill-rule="nonzero"/></g><path fill="#ffffff" d="M 17.757812 31.722656 L 18.109375 31.828125 L 20.0625 34.769531 L 17.953125 34.835938 L 19.246094 35.574219 L 16.140625 42.402344 C 15.921875 42.324219 15.707031 42.246094 15.492188 42.160156 L 17.757812 31.722656 " fill-opacity="1" fill-rule="nonzero"/><path fill="#5e6061" d="M 17.894531 25.152344 L 18.21875 25.140625 L 18.324219 24.769531 L 18.628906 24.464844 C 18.832031 22.945312 18.890625 20.582031 17.382812 20.652344 C 17.382812 20.652344 17.246094 18.929688 14.527344 19.265625 C 11.808594 19.605469 10.582031 21.359375 10.726562 22.824219 C 10.875 24.289062 10.816406 24.464844 10.816406 24.464844 L 11.121094 24.769531 L 11.164062 25.191406 L 11.433594 25.175781 C 11.433594 25.175781 11.515625 24.613281 11.601562 24.363281 C 11.683594 24.117188 11.65625 23.613281 11.65625 23.613281 C 11.65625 23.613281 14.871094 23.820312 15.738281 22.714844 C 16.273438 22.035156 17.503906 20.851562 17.566406 22.488281 C 17.585938 22.972656 17.40625 23.699219 17.75 24.230469 C 18.09375 24.757812 17.898438 25.152344 17.898438 25.152344 L 17.894531 25.152344 " fill-opacity="1" fill-rule="nonzero"/><path fill="#2e7887" d="M 15.492188 42.160156 L 15.664062 41.359375 L 15.074219 33.484375 L 15.398438 33.34375 L 15.054688 32.964844 L 14.539062 32.964844 L 14.1875 33.335938 L 14.519531 33.484375 L 13.945312 41.421875 L 13.957031 41.488281 C 14.457031 41.730469 14.96875 41.957031 15.492188 42.160156 " fill-opacity="1" fill-rule="nonzero"/><path fill="#ffffff" d="M 20.195312 40.234375 C 19.601562 40.128906 19.199219 39.5625 19.304688 38.964844 C 19.40625 38.371094 19.972656 37.96875 20.570312 38.070312 C 21.167969 38.175781 21.566406 38.742188 21.464844 39.339844 C 21.359375 39.9375 20.792969 40.335938 20.195312 40.234375 " fill-opacity="1" fill-rule="nonzero"/><path fill="#2e7887" d="M 20.207031 40.171875 C 19.644531 40.074219 19.269531 39.539062 19.367188 38.976562 C 19.460938 38.414062 19.996094 38.039062 20.558594 38.136719 C 21.121094 38.230469 21.496094 38.765625 21.402344 39.328125 C 21.304688 39.890625 20.769531 40.265625 20.207031 40.171875 " fill-opacity="1" fill-rule="nonzero"/><path fill="#eeefee" d="M 20.285156 39.714844 C 19.976562 39.660156 19.765625 39.367188 19.820312 39.054688 C 19.875 38.746094 20.167969 38.535156 20.480469 38.589844 C 20.792969 38.644531 21 38.9375 20.945312 39.25 C 20.894531 39.5625 20.597656 39.769531 20.285156 39.714844 " fill-opacity="1" fill-rule="nonzero"/><path fill="#ffffff" d="M 20.351562 38.652344 L 20.605469 38.695312 L 20.738281 37.910156 L 20.488281 37.867188 L 20.351562 38.652344 " fill-opacity="1" fill-rule="nonzero"/><path fill="#59c7b6" d="M 12.050781 40.429688 L 12.414062 40.355469 C 12.617188 40.316406 12.78125 40.199219 12.886719 40.039062 C 12.992188 39.882812 13.039062 39.683594 12.996094 39.484375 L 12.445312 36.699219 C 12.234375 35.644531 11.414062 35.109375 10.472656 34.992188 C 10.113281 34.945312 9.734375 34.960938 9.367188 35.035156 C 9.003906 35.105469 8.648438 35.234375 8.332031 35.414062 C 7.910156 35.65625 7.554688 35.988281 7.34375 36.398438 C 7.390625 36.453125 7.4375 36.503906 7.484375 36.558594 C 7.675781 36.152344 8.015625 35.820312 8.429688 35.585938 C 8.726562 35.417969 9.0625 35.296875 9.40625 35.226562 C 9.753906 35.160156 10.109375 35.144531 10.449219 35.1875 C 11.308594 35.296875 12.0625 35.78125 12.25 36.734375 L 12.804688 39.523438 C 12.832031 39.671875 12.800781 39.816406 12.722656 39.929688 C 12.644531 40.046875 12.523438 40.132812 12.375 40.164062 L 11.90625 40.257812 L 11.925781 40.351562 C 11.964844 40.375 12.007812 40.402344 12.050781 40.429688 " fill-opacity="1" fill-rule="nonzero"/><path fill="#464648" d="M 12.59375 37.109375 L 12.507812 36.683594 C 12.292969 35.601562 11.449219 35.046875 10.480469 34.925781 C 10.113281 34.878906 9.730469 34.894531 9.355469 34.96875 C 8.984375 35.042969 8.621094 35.175781 8.300781 35.359375 C 7.875 35.601562 7.515625 35.933594 7.296875 36.34375 C 7.375 36.433594 7.453125 36.523438 7.535156 36.613281 C 7.714844 36.207031 8.050781 35.878906 8.460938 35.644531 C 8.753906 35.476562 9.082031 35.359375 9.421875 35.292969 C 9.757812 35.222656 10.109375 35.210938 10.441406 35.25 C 11.273438 35.355469 12.003906 35.828125 12.1875 36.75 L 12.269531 37.175781 L 12.59375 37.109375 " fill-opacity="1" fill-rule="nonzero"/><path fill="#266373" d="M 12.144531 40.453125 L 12.101562 40.460938 C 11.933594 40.355469 11.765625 40.246094 11.597656 40.136719 C 11.691406 40.125 11.78125 40.164062 11.839844 40.226562 L 12.089844 40.179688 L 12.144531 40.453125 " fill-opacity="1" fill-rule="nonzero"/><path fill="#5e6061" d="M 9.507812 34.945312 L 9.414062 34.460938 L 9.222656 34.5 L 9.03125 34.535156 L 9.128906 35.023438 C 9.203125 35.003906 9.273438 34.984375 9.347656 34.972656 C 9.402344 34.960938 9.457031 34.953125 9.507812 34.945312 " fill-opacity="1" fill-rule="nonzero"/><path fill="#ffffff" d="M 20.253906 39.710938 C 19.960938 39.660156 19.765625 39.378906 19.816406 39.085938 C 19.867188 38.792969 20.144531 38.59375 20.4375 38.644531 C 20.734375 38.695312 20.929688 38.976562 20.878906 39.269531 C 20.828125 39.5625 20.550781 39.761719 20.253906 39.710938 " fill-opacity="1" fill-rule="nonzero"/><path fill="#464648" d="M 11.835938 31.851562 C 11.828125 31.851562 8.859375 31.875 9.359375 34.472656 L 9.085938 34.527344 C 8.519531 31.597656 11.824219 31.570312 11.832031 31.570312 L 11.835938 31.851562 " fill-opacity="1" fill-rule="nonzero"/><path fill="#464648" d="M 17.761719 31.582031 C 18.246094 31.59375 19.183594 31.726562 19.90625 32.605469 C 20.609375 33.460938 21.105469 35.039062 20.734375 37.929688 L 20.457031 37.894531 C 20.8125 35.097656 20.351562 33.589844 19.6875 32.78125 C 19.039062 31.992188 18.191406 31.875 17.753906 31.863281 L 17.761719 31.582031 " fill-opacity="1" fill-rule="nonzero"/><path fill="#eeb367" d="M 31.414062 29.96875 L 30.996094 32.0625 L 29.601562 32.542969 L 30.222656 42.3125 C 32.269531 41.5625 34.164062 40.496094 35.851562 39.175781 L 35.980469 32.296875 L 35.089844 32.015625 L 34.636719 29.882812 L 31.414062 29.96875 " fill-opacity="1" fill-rule="nonzero"/><path fill="#59c7b6" d="M 29.285156 36.171875 C 31.605469 37.300781 33.996094 37.535156 36.507812 36.238281 L 36.488281 38.65625 C 34.386719 40.4375 31.925781 41.8125 29.230469 42.648438 L 29.285156 36.171875 " fill-opacity="1" fill-rule="nonzero"/><path fill="#f2f6f9" d="M 35.539062 32.175781 L 39.582031 33.277344 C 39.984375 33.402344 40.367188 33.570312 40.691406 33.789062 C 38.851562 36.746094 36.285156 39.199219 33.246094 40.914062 L 35.539062 32.175781 " fill-opacity="1" fill-rule="nonzero"/><path fill="#ffffff" d="M 35.5 32.144531 L 36.03125 32.359375 L 37.851562 35.089844 L 35.71875 35.054688 L 37.039062 35.761719 L 34.011719 40.460938 C 33.757812 40.621094 33.5 40.773438 33.238281 40.917969 L 35.5 32.144531 " fill-opacity="1" fill-rule="nonzero"/><g clip-path="url(#9a37aa3dc9)"><path fill="#ffffff" d="M 30.808594 32.132812 L 26.746094 33.164062 C 25.691406 33.46875 24.742188 34.074219 24.691406 35.1875 L 24.320312 43.542969 C 25.375 43.480469 26.410156 43.335938 27.414062 43.121094 L 27.605469 40.539062 L 27.917969 43.007812 C 29.609375 42.601562 31.21875 41.992188 32.722656 41.199219 L 30.808594 32.132812 " fill-opacity="1" fill-rule="nonzero"/></g><path fill="#f2f6f9" d="M 30.847656 32.105469 L 30.210938 32.347656 L 28.445312 35.007812 L 30.574219 35.007812 L 29.242188 35.691406 L 32.460938 41.335938 C 32.550781 41.292969 32.636719 41.246094 32.726562 41.199219 L 30.847656 32.105469 " fill-opacity="1" fill-rule="nonzero"/><path fill="#fccd86" d="M 28.664062 24.953125 C 28.59375 25.640625 28.730469 27.160156 29.5625 27.105469 C 29.5625 27.105469 30.761719 30.589844 33.0625 30.988281 C 35.054688 30.621094 36.261719 27.464844 36.355469 27.164062 C 36.628906 27.257812 37.394531 25.980469 36.808594 24.9375 C 36.640625 24.640625 36.160156 24.882812 36.160156 24.882812 L 36.125 24.011719 C 32.980469 24.316406 31.023438 21.273438 31.023438 21.273438 C 29.824219 22.578125 29.535156 23.320312 29.40625 24.945312 C 29.40625 24.945312 29.183594 24.804688 28.933594 24.796875 C 28.859375 24.796875 28.761719 24.863281 28.664062 24.953125 " fill-opacity="1" fill-rule="nonzero"/><path fill="#5e6061" d="M 30.996094 32.0625 L 31.402344 30.015625 C 30.222656 28.855469 29.609375 27.105469 29.609375 27.105469 C 28.804688 27.195312 28.484375 24.980469 29.023438 24.902344 C 29.269531 24.867188 29.4375 24.945312 29.4375 24.945312 C 29.558594 23.230469 29.886719 22.710938 31.023438 21.273438 C 31.023438 21.273438 33.003906 24.609375 36.144531 24.304688 L 36.1875 25.023438 C 36.339844 24.875 36.609375 24.738281 36.835938 25.109375 C 37.203125 25.714844 36.722656 27.089844 36.277344 27.175781 C 36.214844 27.386719 35.71875 28.953125 34.667969 30.023438 L 35.089844 32.015625 C 36.269531 32.394531 37.40625 32.691406 38.546875 32.996094 C 37.96875 29.460938 37.632812 25.640625 36.941406 22.378906 C 36.277344 19.246094 32.648438 18.371094 30.5625 19.761719 C 30.5625 19.761719 28.761719 20.488281 28.433594 22.890625 C 28.105469 25.296875 28.230469 25.527344 28.230469 25.527344 L 27.652344 32.933594 C 28.726562 32.660156 29.972656 32.414062 30.996094 32.0625 " fill-opacity="1" fill-rule="nonzero"/><path fill="#59c7b6" d="M 30.324219 40.972656 L 30.796875 40.878906 C 30.996094 40.839844 31.164062 40.722656 31.269531 40.5625 C 31.375 40.40625 31.421875 40.207031 31.378906 40.007812 L 30.828125 37.214844 C 30.617188 36.160156 29.792969 35.625 28.851562 35.503906 C 28.488281 35.460938 28.113281 35.476562 27.746094 35.550781 C 27.378906 35.621094 27.023438 35.75 26.707031 35.929688 C 25.882812 36.398438 25.328125 37.210938 25.539062 38.265625 L 26.09375 41.058594 C 26.132812 41.257812 26.25 41.421875 26.410156 41.527344 C 26.566406 41.636719 26.765625 41.679688 26.964844 41.640625 L 27.4375 41.546875 L 27.398438 41.351562 L 26.925781 41.445312 C 26.78125 41.476562 26.632812 41.441406 26.519531 41.363281 C 26.402344 41.289062 26.316406 41.164062 26.285156 41.019531 L 25.730469 38.226562 C 25.542969 37.269531 26.050781 36.53125 26.804688 36.101562 C 27.101562 35.933594 27.4375 35.8125 27.78125 35.742188 C 28.128906 35.675781 28.484375 35.660156 28.824219 35.703125 C 29.6875 35.808594 30.441406 36.296875 30.632812 37.253906 L 31.1875 40.046875 C 31.214844 40.195312 31.179688 40.339844 31.105469 40.453125 C 31.027344 40.570312 30.90625 40.65625 30.757812 40.6875 L 30.285156 40.78125 L 30.324219 40.972656 " fill-opacity="1" fill-rule="nonzero"/><path fill="#464648" d="M 30.976562 37.628906 L 30.890625 37.203125 C 30.675781 36.117188 29.828125 35.5625 28.859375 35.441406 C 28.492188 35.394531 28.105469 35.410156 27.730469 35.484375 C 27.359375 35.558594 26.996094 35.691406 26.675781 35.875 C 25.828125 36.355469 25.257812 37.191406 25.472656 38.277344 L 25.558594 38.703125 L 25.882812 38.640625 L 25.796875 38.214844 C 25.613281 37.289062 26.105469 36.574219 26.835938 36.160156 C 27.128906 35.992188 27.457031 35.875 27.796875 35.808594 C 28.136719 35.738281 28.484375 35.722656 28.820312 35.765625 C 29.652344 35.871094 30.382812 36.34375 30.566406 37.265625 L 30.652344 37.695312 L 30.976562 37.628906 " fill-opacity="1" fill-rule="nonzero"/><path fill="#266373" d="M 27.0625 41.664062 L 27.316406 41.613281 C 27.378906 41.683594 27.476562 41.722656 27.574219 41.703125 C 27.726562 41.671875 27.824219 41.527344 27.792969 41.375 C 27.765625 41.226562 27.617188 41.128906 27.46875 41.160156 C 27.367188 41.179688 27.292969 41.25 27.261719 41.339844 L 27.007812 41.390625 L 27.0625 41.664062 " fill-opacity="1" fill-rule="nonzero"/><path fill="#266373" d="M 30.527344 40.976562 L 30.273438 41.027344 C 30.242188 41.117188 30.167969 41.1875 30.066406 41.207031 C 29.917969 41.238281 29.769531 41.140625 29.742188 40.988281 C 29.710938 40.839844 29.808594 40.695312 29.957031 40.664062 C 30.058594 40.644531 30.15625 40.679688 30.21875 40.753906 L 30.472656 40.703125 L 30.523438 40.976562 L 30.527344 40.976562 " fill-opacity="1" fill-rule="nonzero"/><path fill="#5e6061" d="M 27.886719 35.460938 L 27.789062 34.976562 L 27.597656 35.011719 L 27.40625 35.050781 L 27.503906 35.539062 C 27.578125 35.519531 27.652344 35.5 27.726562 35.484375 C 27.777344 35.476562 27.832031 35.46875 27.886719 35.460938 " fill-opacity="1" fill-rule="nonzero"/><path fill="#2e7887" d="M 27.472656 41.394531 C 27.519531 41.386719 27.546875 41.339844 27.539062 41.296875 C 27.53125 41.25 27.484375 41.222656 27.441406 41.230469 C 27.394531 41.238281 27.367188 41.28125 27.375 41.328125 C 27.382812 41.375 27.425781 41.402344 27.472656 41.394531 " fill-opacity="1" fill-rule="nonzero"/><path fill="#2e7887" d="M 29.964844 40.898438 C 30.011719 40.890625 30.039062 40.847656 30.03125 40.800781 C 30.023438 40.753906 29.976562 40.726562 29.933594 40.734375 C 29.886719 40.742188 29.859375 40.789062 29.867188 40.832031 C 29.875 40.878906 29.917969 40.90625 29.964844 40.898438 " fill-opacity="1" fill-rule="nonzero"/><path fill="#464648" d="M 30.21875 32.359375 C 30.207031 32.359375 27.234375 32.382812 27.738281 34.988281 L 27.460938 35.039062 C 26.894531 32.105469 30.203125 32.078125 30.214844 32.078125 L 30.21875 32.359375 " fill-opacity="1" fill-rule="nonzero"/><path fill="#464648" d="M 36.152344 32.09375 C 36.636719 32.105469 37.578125 32.238281 38.296875 33.117188 C 38.757812 33.671875 39.125 34.527344 39.226562 35.847656 C 39.140625 35.957031 39.054688 36.0625 38.964844 36.167969 C 38.902344 34.746094 38.539062 33.851562 38.082031 33.292969 C 37.433594 32.503906 36.585938 32.382812 36.148438 32.371094 L 36.152344 32.09375 " fill-opacity="1" fill-rule="nonzero"/><path fill="#f03f5c" d="M 13.859375 6.34375 L 24.320312 6.34375 C 24.964844 6.34375 25.492188 6.871094 25.492188 7.515625 L 25.492188 14.398438 C 25.492188 15.042969 24.964844 15.570312 24.320312 15.570312 L 15.871094 15.570312 C 15.363281 16.609375 12.890625 17.089844 12.890625 17.089844 C 12.890625 17.089844 13.664062 16.476562 14.097656 15.570312 L 13.859375 15.570312 C 13.214844 15.570312 12.6875 15.042969 12.6875 14.398438 L 12.6875 7.515625 C 12.6875 6.871094 13.214844 6.34375 13.859375 6.34375 " fill-opacity="1" fill-rule="nonzero"/><path fill="#59c7b6" d="M 27.171875 7.332031 C 30.648438 7.332031 33.46875 9.574219 33.46875 12.339844 C 33.46875 13.929688 32.539062 15.34375 31.089844 16.261719 C 31.429688 17.425781 32.480469 18.261719 32.480469 18.261719 C 32.480469 18.261719 30.347656 17.84375 29.636719 16.953125 C 28.878906 17.207031 28.046875 17.351562 27.171875 17.351562 C 23.695312 17.351562 20.878906 15.109375 20.878906 12.339844 C 20.878906 9.574219 23.695312 7.332031 27.171875 7.332031 " fill-opacity="1" fill-rule="nonzero"/><path fill="#ffffff" d="M 13.835938 9.429688 L 21.167969 9.429688 L 21.167969 9.882812 L 13.835938 9.882812 Z M 13.835938 10.855469 L 19.199219 10.855469 L 19.199219 11.308594 L 13.835938 11.308594 Z M 13.835938 8.003906 L 21.167969 8.003906 L 21.167969 8.457031 L 13.835938 8.457031 L 13.835938 8.003906 " fill-opacity="1" fill-rule="nonzero"/><path fill="#ffffff" d="M 23.769531 12.175781 L 31.105469 12.175781 L 31.105469 12.628906 L 23.769531 12.628906 Z M 23.769531 13.601562 L 29.136719 13.601562 L 29.136719 14.054688 L 23.769531 14.054688 Z M 23.769531 10.75 L 31.105469 10.75 L 31.105469 11.203125 L 23.769531 11.203125 L 23.769531 10.75 " fill-opacity="1" fill-rule="nonzero"/></svg>