<svg xmlns="http://www.w3.org/2000/svg" xmlns:xlink="http://www.w3.org/1999/xlink" width="62" zoomAndPan="magnify" viewBox="0 0 46.5 45.749999" height="61" preserveAspectRatio="xMidYMid meet" version="1.0"><defs><clipPath id="4c56e69731"><path d="M 15 1.902344 L 42 1.902344 L 42 21 L 15 21 Z M 15 1.902344 " clip-rule="nonzero"/></clipPath><clipPath id="2c2e19a9b4"><path d="M 2.152344 13 L 29 13 L 29 35 L 2.152344 35 Z M 2.152344 13 " clip-rule="nonzero"/></clipPath><clipPath id="6bd665ed56"><path d="M 17 21 L 43.703125 21 L 43.703125 43.453125 L 17 43.453125 Z M 17 21 " clip-rule="nonzero"/></clipPath></defs><path fill="#98d6fc" d="M 38.984375 2.84375 L 18.207031 2.84375 C 17.957031 2.84375 17.714844 2.894531 17.484375 2.988281 C 17.253906 3.085938 17.046875 3.222656 16.871094 3.398438 C 16.695312 3.574219 16.558594 3.78125 16.460938 4.011719 C 16.367188 4.242188 16.316406 4.484375 16.316406 4.734375 L 16.316406 17.011719 C 16.316406 17.261719 16.367188 17.503906 16.460938 17.734375 C 16.558594 17.964844 16.695312 18.167969 16.871094 18.347656 C 17.046875 18.523438 17.253906 18.660156 17.484375 18.753906 C 17.714844 18.851562 17.957031 18.898438 18.207031 18.898438 L 25.109375 18.898438 L 28.492188 22.675781 L 31.863281 18.898438 L 38.984375 18.898438 C 39.234375 18.898438 39.472656 18.851562 39.707031 18.753906 C 39.9375 18.660156 40.140625 18.523438 40.320312 18.347656 C 40.496094 18.167969 40.632812 17.964844 40.726562 17.734375 C 40.824219 17.503906 40.871094 17.261719 40.871094 17.011719 L 40.871094 4.734375 C 40.871094 4.484375 40.824219 4.242188 40.726562 4.011719 C 40.632812 3.78125 40.496094 3.574219 40.320312 3.398438 C 40.140625 3.222656 39.9375 3.085938 39.707031 2.988281 C 39.472656 2.894531 39.234375 2.84375 38.984375 2.84375 Z M 38.984375 2.84375 " fill-opacity="1" fill-rule="nonzero"/><path fill="#f47f8f" d="M 25.761719 14.175781 L 4.984375 14.175781 C 4.734375 14.175781 4.492188 14.226562 4.261719 14.320312 C 4.03125 14.417969 3.828125 14.554688 3.648438 14.730469 C 3.472656 14.90625 3.335938 15.113281 3.238281 15.34375 C 3.144531 15.574219 3.097656 15.816406 3.097656 16.066406 L 3.097656 28.34375 C 3.097656 28.59375 3.144531 28.835938 3.238281 29.066406 C 3.335938 29.296875 3.472656 29.5 3.648438 29.679688 C 3.828125 29.855469 4.03125 29.992188 4.261719 30.089844 C 4.492188 30.183594 4.734375 30.230469 4.984375 30.230469 L 11.886719 30.230469 L 15.269531 34.011719 L 18.640625 30.230469 L 25.761719 30.230469 C 26.011719 30.230469 26.253906 30.183594 26.484375 30.089844 C 26.714844 29.992188 26.921875 29.855469 27.097656 29.679688 C 27.273438 29.5 27.410156 29.296875 27.507812 29.066406 C 27.601562 28.835938 27.652344 28.59375 27.652344 28.34375 L 27.652344 16.066406 C 27.652344 15.816406 27.601562 15.574219 27.507812 15.34375 C 27.410156 15.113281 27.273438 14.90625 27.097656 14.730469 C 26.921875 14.554688 26.714844 14.417969 26.484375 14.320312 C 26.253906 14.226562 26.011719 14.175781 25.761719 14.175781 Z M 25.761719 14.175781 " fill-opacity="1" fill-rule="nonzero"/><path fill="#f8f6f7" d="M 15.375 28.042969 L 11.40625 24.085938 C 7.460938 20.136719 11.40625 16.179688 15.363281 20.117188 C 19.332031 16.152344 23.289062 20.117188 19.320312 24.085938 Z M 15.375 28.042969 " fill-opacity="1" fill-rule="nonzero"/><g clip-path="url(#4c56e69731)"><path fill="#231f20" d="M 31.023438 20.789062 C 30.78125 20.789062 30.570312 20.710938 30.390625 20.550781 C 30.191406 20.378906 30.085938 20.160156 30.070312 19.898438 C 30.054688 19.636719 30.136719 19.40625 30.3125 19.210938 L 31.152344 18.265625 C 31.34375 18.058594 31.578125 17.953125 31.863281 17.957031 L 38.984375 17.957031 C 39.242188 17.957031 39.464844 17.863281 39.652344 17.679688 C 39.835938 17.496094 39.925781 17.273438 39.925781 17.011719 L 39.925781 4.734375 C 39.925781 4.472656 39.835938 4.25 39.652344 4.066406 C 39.464844 3.882812 39.242188 3.789062 38.984375 3.789062 L 18.207031 3.789062 C 17.945312 3.789062 17.722656 3.882812 17.539062 4.066406 C 17.355469 4.25 17.261719 4.472656 17.261719 4.734375 L 17.261719 11.34375 C 17.261719 11.605469 17.167969 11.828125 16.984375 12.011719 C 16.800781 12.195312 16.578125 12.289062 16.316406 12.289062 C 16.058594 12.289062 15.835938 12.195312 15.648438 12.011719 C 15.464844 11.828125 15.375 11.605469 15.375 11.34375 L 15.375 4.734375 C 15.375 4.359375 15.445312 3.996094 15.589844 3.648438 C 15.734375 3.300781 15.9375 2.996094 16.203125 2.730469 C 16.46875 2.464844 16.773438 2.261719 17.121094 2.117188 C 17.46875 1.972656 17.832031 1.902344 18.207031 1.902344 L 38.984375 1.902344 C 39.359375 1.902344 39.71875 1.972656 40.066406 2.117188 C 40.414062 2.261719 40.722656 2.464844 40.988281 2.730469 C 41.253906 2.996094 41.457031 3.300781 41.601562 3.648438 C 41.746094 3.996094 41.816406 4.359375 41.816406 4.734375 L 41.816406 17.011719 C 41.816406 17.386719 41.746094 17.746094 41.601562 18.09375 C 41.457031 18.441406 41.253906 18.75 40.988281 19.015625 C 40.722656 19.28125 40.414062 19.484375 40.066406 19.628906 C 39.71875 19.773438 39.359375 19.84375 38.984375 19.84375 L 32.289062 19.84375 L 31.722656 20.476562 C 31.535156 20.683594 31.300781 20.789062 31.023438 20.789062 Z M 31.023438 20.789062 " fill-opacity="1" fill-rule="nonzero"/></g><g clip-path="url(#2c2e19a9b4)"><path fill="#231f20" d="M 15.269531 34.953125 C 14.992188 34.953125 14.757812 34.851562 14.570312 34.640625 L 11.464844 31.175781 L 4.984375 31.175781 C 4.609375 31.175781 4.246094 31.105469 3.902344 30.960938 C 3.554688 30.816406 3.246094 30.613281 2.980469 30.347656 C 2.714844 30.082031 2.511719 29.773438 2.367188 29.425781 C 2.222656 29.082031 2.152344 28.71875 2.152344 28.34375 L 2.152344 16.066406 C 2.152344 15.691406 2.222656 15.328125 2.367188 14.980469 C 2.511719 14.636719 2.714844 14.328125 2.980469 14.0625 C 3.246094 13.796875 3.554688 13.59375 3.902344 13.449219 C 4.246094 13.304688 4.609375 13.234375 4.984375 13.234375 L 25.761719 13.234375 C 26.136719 13.234375 26.5 13.304688 26.847656 13.449219 C 27.191406 13.59375 27.5 13.796875 27.765625 14.0625 C 28.03125 14.328125 28.234375 14.636719 28.378906 14.980469 C 28.523438 15.328125 28.59375 15.691406 28.59375 16.066406 L 28.59375 19.84375 C 28.59375 20.105469 28.503906 20.328125 28.316406 20.511719 C 28.132812 20.695312 27.910156 20.789062 27.652344 20.789062 C 27.390625 20.789062 27.167969 20.695312 26.984375 20.511719 C 26.796875 20.328125 26.707031 20.105469 26.707031 19.84375 L 26.707031 16.066406 C 26.707031 15.804688 26.613281 15.582031 26.429688 15.398438 C 26.246094 15.214844 26.023438 15.121094 25.761719 15.121094 L 4.984375 15.121094 C 4.722656 15.121094 4.5 15.214844 4.316406 15.398438 C 4.132812 15.582031 4.039062 15.804688 4.039062 16.066406 L 4.039062 28.34375 C 4.039062 28.605469 4.132812 28.828125 4.316406 29.011719 C 4.5 29.195312 4.722656 29.289062 4.984375 29.289062 L 11.886719 29.289062 C 12.171875 29.285156 12.40625 29.390625 12.597656 29.597656 L 15.976562 33.378906 C 16.152344 33.570312 16.234375 33.800781 16.21875 34.0625 C 16.207031 34.324219 16.097656 34.542969 15.902344 34.71875 C 15.722656 34.878906 15.511719 34.957031 15.269531 34.953125 Z M 15.269531 34.953125 " fill-opacity="1" fill-rule="nonzero"/></g><path fill="#231f20" d="M 33.316406 7.566406 L 21.039062 7.566406 C 20.777344 7.566406 20.554688 7.476562 20.371094 7.289062 C 20.1875 7.105469 20.09375 6.882812 20.09375 6.621094 C 20.09375 6.363281 20.1875 6.140625 20.371094 5.953125 C 20.554688 5.769531 20.777344 5.679688 21.039062 5.679688 L 33.316406 5.679688 C 33.578125 5.679688 33.800781 5.769531 33.984375 5.953125 C 34.167969 6.140625 34.261719 6.363281 34.261719 6.621094 C 34.261719 6.882812 34.167969 7.105469 33.984375 7.289062 C 33.800781 7.476562 33.578125 7.566406 33.316406 7.566406 Z M 33.316406 7.566406 " fill-opacity="1" fill-rule="nonzero"/><path fill="#231f20" d="M 28.59375 11.34375 L 21.039062 11.34375 C 20.777344 11.34375 20.554688 11.253906 20.371094 11.066406 C 20.1875 10.882812 20.09375 10.660156 20.09375 10.398438 C 20.09375 10.140625 20.1875 9.917969 20.371094 9.730469 C 20.554688 9.546875 20.777344 9.457031 21.039062 9.457031 L 28.59375 9.457031 C 28.855469 9.457031 29.078125 9.546875 29.261719 9.730469 C 29.445312 9.917969 29.539062 10.140625 29.539062 10.398438 C 29.539062 10.660156 29.445312 10.882812 29.261719 11.066406 C 29.078125 11.253906 28.855469 11.34375 28.59375 11.34375 Z M 28.59375 11.34375 " fill-opacity="1" fill-rule="nonzero"/><path fill="#231f20" d="M 15.375 28.984375 C 15.113281 28.988281 14.886719 28.894531 14.703125 28.710938 L 10.738281 24.753906 C 8.242188 22.261719 8.488281 19.75 9.792969 18.472656 C 11.09375 17.199219 13.105469 17.011719 15.375 18.84375 C 15.917969 18.347656 16.539062 17.992188 17.242188 17.773438 C 17.945312 17.554688 18.660156 17.496094 19.386719 17.597656 C 19.902344 17.699219 20.363281 17.917969 20.769531 18.25 C 21.175781 18.585938 21.476562 18.996094 21.671875 19.484375 C 21.769531 19.726562 21.765625 19.96875 21.664062 20.207031 C 21.558594 20.449219 21.386719 20.617188 21.144531 20.710938 C 20.902344 20.808594 20.660156 20.804688 20.421875 20.703125 C 20.179688 20.601562 20.011719 20.425781 19.914062 20.183594 C 19.742188 19.753906 19.429688 19.507812 18.972656 19.4375 C 18.402344 19.417969 17.859375 19.527344 17.34375 19.765625 C 16.828125 20.003906 16.390625 20.34375 16.035156 20.789062 C 15.851562 20.972656 15.625 21.066406 15.363281 21.066406 C 15.101562 21.066406 14.878906 20.972656 14.695312 20.789062 C 13.191406 19.285156 11.746094 19.164062 11.09375 19.84375 C 10.445312 20.523438 10.566406 21.941406 12.039062 23.441406 L 16.035156 27.398438 C 16.21875 27.582031 16.3125 27.808594 16.3125 28.070312 C 16.3125 28.332031 16.21875 28.554688 16.035156 28.738281 C 15.847656 28.910156 15.625 28.992188 15.375 28.984375 Z M 15.375 28.984375 " fill-opacity="1" fill-rule="nonzero"/><path fill="#f8f6f7" d="M 40.871094 22.675781 L 20.09375 22.675781 C 19.84375 22.675781 19.605469 22.726562 19.371094 22.820312 C 19.140625 22.917969 18.9375 23.054688 18.757812 23.230469 C 18.582031 23.40625 18.445312 23.613281 18.351562 23.84375 C 18.253906 24.074219 18.207031 24.316406 18.207031 24.566406 L 18.207031 36.84375 C 18.207031 37.09375 18.253906 37.335938 18.351562 37.566406 C 18.445312 37.796875 18.582031 38 18.757812 38.179688 C 18.9375 38.355469 19.140625 38.492188 19.371094 38.589844 C 19.605469 38.683594 19.84375 38.730469 20.09375 38.730469 L 27 38.730469 L 30.378906 42.507812 L 33.75 38.730469 L 40.871094 38.730469 C 41.121094 38.730469 41.363281 38.683594 41.59375 38.589844 C 41.824219 38.492188 42.03125 38.355469 42.207031 38.179688 C 42.382812 38 42.519531 37.796875 42.617188 37.566406 C 42.710938 37.335938 42.761719 37.09375 42.761719 36.84375 L 42.761719 24.566406 C 42.761719 24.316406 42.710938 24.074219 42.617188 23.84375 C 42.519531 23.613281 42.382812 23.40625 42.207031 23.230469 C 42.03125 23.054688 41.824219 22.917969 41.59375 22.820312 C 41.363281 22.726562 41.121094 22.675781 40.871094 22.675781 Z M 40.871094 22.675781 " fill-opacity="1" fill-rule="nonzero"/><path fill="#fbe639" d="M 36.148438 31.175781 C 36.148438 31.546875 36.113281 31.917969 36.042969 32.28125 C 35.96875 32.648438 35.859375 33 35.71875 33.34375 C 35.578125 33.6875 35.402344 34.015625 35.195312 34.324219 C 34.988281 34.632812 34.753906 34.921875 34.492188 35.183594 C 34.226562 35.445312 33.941406 35.679688 33.632812 35.886719 C 33.324219 36.09375 32.996094 36.269531 32.652344 36.410156 C 32.308594 36.554688 31.953125 36.660156 31.589844 36.734375 C 31.222656 36.808594 30.855469 36.84375 30.484375 36.84375 C 30.113281 36.84375 29.742188 36.808594 29.378906 36.734375 C 29.011719 36.660156 28.660156 36.554688 28.316406 36.410156 C 27.972656 36.269531 27.644531 36.09375 27.335938 35.886719 C 27.027344 35.679688 26.738281 35.445312 26.476562 35.183594 C 26.214844 34.921875 25.980469 34.632812 25.773438 34.324219 C 25.566406 34.015625 25.390625 33.6875 25.25 33.34375 C 25.105469 33 25 32.648438 24.925781 32.28125 C 24.855469 31.917969 24.816406 31.546875 24.816406 31.175781 C 24.816406 30.804688 24.855469 30.4375 24.925781 30.070312 C 25 29.707031 25.105469 29.351562 25.25 29.007812 C 25.390625 28.664062 25.566406 28.339844 25.773438 28.027344 C 25.980469 27.71875 26.214844 27.433594 26.476562 27.171875 C 26.738281 26.90625 27.027344 26.671875 27.335938 26.464844 C 27.644531 26.257812 27.972656 26.085938 28.316406 25.941406 C 28.660156 25.800781 29.011719 25.691406 29.378906 25.621094 C 29.742188 25.546875 30.113281 25.511719 30.484375 25.511719 C 30.855469 25.511719 31.222656 25.546875 31.589844 25.621094 C 31.953125 25.691406 32.308594 25.800781 32.652344 25.941406 C 32.996094 26.085938 33.324219 26.257812 33.632812 26.464844 C 33.941406 26.671875 34.226562 26.90625 34.492188 27.171875 C 34.753906 27.433594 34.988281 27.71875 35.195312 28.027344 C 35.402344 28.339844 35.578125 28.664062 35.71875 29.007812 C 35.859375 29.351562 35.96875 29.707031 36.042969 30.070312 C 36.113281 30.4375 36.148438 30.804688 36.148438 31.175781 Z M 36.148438 31.175781 " fill-opacity="1" fill-rule="nonzero"/><g clip-path="url(#6bd665ed56)"><path fill="#231f20" d="M 30.378906 43.453125 C 30.097656 43.457031 29.859375 43.351562 29.671875 43.140625 L 26.582031 39.675781 L 20.09375 39.675781 C 19.71875 39.675781 19.359375 39.605469 19.011719 39.460938 C 18.664062 39.316406 18.359375 39.113281 18.09375 38.847656 C 17.828125 38.582031 17.621094 38.273438 17.476562 37.925781 C 17.335938 37.582031 17.261719 37.21875 17.261719 36.84375 L 17.261719 24.566406 C 17.261719 24.191406 17.335938 23.828125 17.476562 23.480469 C 17.621094 23.132812 17.828125 22.828125 18.09375 22.5625 C 18.359375 22.296875 18.664062 22.09375 19.011719 21.949219 C 19.359375 21.804688 19.71875 21.734375 20.09375 21.734375 L 40.871094 21.734375 C 41.246094 21.734375 41.609375 21.804688 41.957031 21.949219 C 42.304688 22.09375 42.609375 22.296875 42.875 22.5625 C 43.140625 22.828125 43.34375 23.132812 43.488281 23.480469 C 43.632812 23.828125 43.703125 24.191406 43.703125 24.566406 L 43.703125 36.84375 C 43.703125 37.21875 43.632812 37.582031 43.488281 37.925781 C 43.34375 38.273438 43.140625 38.582031 42.875 38.847656 C 42.609375 39.113281 42.304688 39.316406 41.957031 39.460938 C 41.609375 39.605469 41.246094 39.675781 40.871094 39.675781 L 34.175781 39.675781 L 31.078125 43.140625 C 30.890625 43.347656 30.660156 43.453125 30.378906 43.453125 Z M 20.09375 23.621094 C 19.835938 23.621094 19.613281 23.714844 19.425781 23.898438 C 19.242188 24.082031 19.152344 24.304688 19.152344 24.566406 L 19.152344 36.84375 C 19.152344 37.105469 19.242188 37.328125 19.425781 37.511719 C 19.613281 37.695312 19.835938 37.789062 20.09375 37.789062 L 27 37.789062 C 27.28125 37.785156 27.519531 37.890625 27.707031 38.097656 L 30.378906 41.09375 L 33.042969 38.097656 C 33.230469 37.890625 33.46875 37.785156 33.75 37.789062 L 40.871094 37.789062 C 41.132812 37.789062 41.355469 37.695312 41.539062 37.511719 C 41.722656 37.328125 41.816406 37.105469 41.816406 36.84375 L 41.816406 24.566406 C 41.816406 24.304688 41.722656 24.082031 41.539062 23.898438 C 41.355469 23.714844 41.132812 23.621094 40.871094 23.621094 Z M 20.09375 23.621094 " fill-opacity="1" fill-rule="nonzero"/></g><path fill="#231f20" d="M 30.484375 37.789062 C 30.050781 37.789062 29.621094 37.746094 29.195312 37.660156 C 28.769531 37.574219 28.355469 37.449219 27.953125 37.285156 C 27.550781 37.117188 27.171875 36.914062 26.8125 36.671875 C 26.449219 36.433594 26.117188 36.15625 25.808594 35.851562 C 25.503906 35.542969 25.226562 35.210938 24.988281 34.847656 C 24.746094 34.488281 24.542969 34.109375 24.375 33.707031 C 24.210938 33.304688 24.085938 32.890625 24 32.464844 C 23.914062 32.039062 23.871094 31.609375 23.871094 31.175781 C 23.871094 30.742188 23.914062 30.3125 24 29.886719 C 24.085938 29.460938 24.210938 29.046875 24.375 28.648438 C 24.542969 28.246094 24.746094 27.863281 24.988281 27.503906 C 25.226562 27.144531 25.503906 26.808594 25.808594 26.503906 C 26.117188 26.195312 26.449219 25.921875 26.8125 25.679688 C 27.171875 25.4375 27.550781 25.234375 27.953125 25.070312 C 28.355469 24.902344 28.769531 24.777344 29.195312 24.691406 C 29.621094 24.609375 30.050781 24.566406 30.484375 24.566406 C 30.917969 24.566406 31.347656 24.609375 31.773438 24.691406 C 32.199219 24.777344 32.613281 24.902344 33.011719 25.070312 C 33.414062 25.234375 33.796875 25.4375 34.15625 25.679688 C 34.515625 25.921875 34.851562 26.195312 35.15625 26.503906 C 35.464844 26.808594 35.738281 27.144531 35.980469 27.503906 C 36.222656 27.863281 36.425781 28.246094 36.589844 28.648438 C 36.757812 29.046875 36.882812 29.460938 36.96875 29.886719 C 37.050781 30.3125 37.09375 30.742188 37.09375 31.175781 C 37.09375 31.609375 37.050781 32.039062 36.96875 32.464844 C 36.882812 32.890625 36.757812 33.304688 36.589844 33.707031 C 36.425781 34.109375 36.222656 34.488281 35.980469 34.847656 C 35.738281 35.210938 35.464844 35.542969 35.15625 35.851562 C 34.851562 36.15625 34.515625 36.433594 34.15625 36.671875 C 33.796875 36.914062 33.414062 37.117188 33.011719 37.285156 C 32.613281 37.449219 32.199219 37.574219 31.773438 37.660156 C 31.347656 37.746094 30.917969 37.789062 30.484375 37.789062 Z M 30.484375 26.453125 C 30.171875 26.453125 29.867188 26.484375 29.5625 26.546875 C 29.257812 26.605469 28.964844 26.695312 28.675781 26.8125 C 28.390625 26.933594 28.117188 27.078125 27.859375 27.25 C 27.601562 27.421875 27.363281 27.617188 27.144531 27.835938 C 26.925781 28.058594 26.730469 28.296875 26.558594 28.554688 C 26.386719 28.8125 26.238281 29.082031 26.121094 29.371094 C 26.003906 29.65625 25.914062 29.953125 25.851562 30.253906 C 25.792969 30.558594 25.761719 30.867188 25.761719 31.175781 C 25.761719 31.488281 25.792969 31.792969 25.851562 32.097656 C 25.914062 32.402344 26.003906 32.695312 26.121094 32.984375 C 26.238281 33.269531 26.386719 33.542969 26.558594 33.800781 C 26.730469 34.058594 26.925781 34.296875 27.144531 34.515625 C 27.363281 34.734375 27.601562 34.929688 27.859375 35.101562 C 28.117188 35.273438 28.390625 35.421875 28.675781 35.539062 C 28.964844 35.65625 29.257812 35.746094 29.5625 35.808594 C 29.867188 35.867188 30.171875 35.898438 30.484375 35.898438 C 30.792969 35.898438 31.101562 35.867188 31.40625 35.808594 C 31.707031 35.746094 32.003906 35.65625 32.289062 35.539062 C 32.578125 35.421875 32.847656 35.273438 33.105469 35.101562 C 33.363281 34.929688 33.601562 34.734375 33.824219 34.515625 C 34.042969 34.296875 34.238281 34.058594 34.410156 33.800781 C 34.582031 33.542969 34.726562 33.269531 34.847656 32.984375 C 34.964844 32.695312 35.054688 32.402344 35.113281 32.097656 C 35.175781 31.792969 35.207031 31.488281 35.207031 31.175781 C 35.207031 30.867188 35.175781 30.558594 35.113281 30.253906 C 35.054688 29.953125 34.964844 29.65625 34.847656 29.371094 C 34.726562 29.082031 34.582031 28.8125 34.410156 28.554688 C 34.238281 28.296875 34.042969 28.058594 33.824219 27.835938 C 33.601562 27.617188 33.363281 27.421875 33.105469 27.25 C 32.847656 27.078125 32.578125 26.933594 32.289062 26.8125 C 32.003906 26.695312 31.707031 26.605469 31.40625 26.546875 C 31.101562 26.484375 30.792969 26.453125 30.484375 26.453125 Z M 30.484375 26.453125 " fill-opacity="1" fill-rule="nonzero"/><path fill="#231f20" d="M 30.484375 34.480469 C 30.109375 34.480469 29.746094 34.410156 29.398438 34.265625 C 29.050781 34.121094 28.746094 33.917969 28.480469 33.652344 C 28.214844 33.386719 28.011719 33.082031 27.867188 32.734375 C 27.722656 32.386719 27.652344 32.023438 27.652344 31.648438 C 27.652344 31.386719 27.742188 31.164062 27.925781 30.980469 C 28.113281 30.796875 28.335938 30.703125 28.59375 30.703125 C 28.855469 30.703125 29.078125 30.796875 29.261719 30.980469 C 29.445312 31.164062 29.539062 31.386719 29.539062 31.648438 C 29.539062 31.910156 29.632812 32.132812 29.816406 32.316406 C 30 32.5 30.222656 32.59375 30.484375 32.59375 C 30.746094 32.59375 30.96875 32.5 31.152344 32.316406 C 31.335938 32.132812 31.429688 31.910156 31.429688 31.648438 C 31.429688 31.386719 31.519531 31.164062 31.703125 30.980469 C 31.890625 30.796875 32.113281 30.703125 32.371094 30.703125 C 32.632812 30.703125 32.855469 30.796875 33.039062 30.980469 C 33.222656 31.164062 33.316406 31.386719 33.316406 31.648438 C 33.316406 32.023438 33.246094 32.386719 33.101562 32.734375 C 32.957031 33.082031 32.753906 33.386719 32.488281 33.652344 C 32.222656 33.917969 31.914062 34.121094 31.566406 34.265625 C 31.21875 34.410156 30.859375 34.480469 30.484375 34.480469 Z M 30.484375 34.480469 " fill-opacity="1" fill-rule="nonzero"/></svg>